:SAMPLES-PER-SECOND 30
:FULLY-SPECIFIED
:DEGREES
634
root  88.1453 40.1781 -3.37055 -173.031 -84.7205 169.957
RightUpLeg  0.932433 -8.15164 -5.32707
RightLeg  7.52769 1.00496 3.08978
RightFoot  -4.77955 0.0411367 -1.20026
RightToes  -4.65663e-010 0 -3.6325e-017
Spine  7.37342 0.529896 -0.658171
Spine1  -3.29502 0.329504 1.43639
HEad  0.732389 4.64806 1.29233
LeftShoulder1  0.714436 -1.1578 -7.68538
LeftArm  -45.9493 7.81736 -0.831114
LeftForeArm  28.8758 -24.3781 -3.70525
LeftHand  -0.244104 0.0205437 5.32207
RightShoulder  0.0534149 -2.942 1.24271
RightArm  -28.5543 -1.44662 -0.657833
RightForeArm  -20.5532 8.68858 3.4961
RightHand  -3.98503 11.6638 -26.9724
LeftUpLeg  2.809 4.68415 0.60583
LeftLeg  5.17127 14.9914 -2.95607
LeftFoot  -5.69707 -0.100405 2.73598
LeftToes  -5.82109e-011 -4.83791e-012 -1.00937e-011
635
root  88.1547 40.1762 -3.35372 -171.754 -85.0421 168.669
RightUpLeg  0.902636 -8.20477 -5.39711
RightLeg  7.64789 0.751678 3.03016
RightFoot  -4.84333 0.0428972 -1.22763
RightToes  -4.65663e-010 0 -3.6325e-017
Spine  7.32402 0.585444 -0.86014
Spine1  -3.41916 0.366041 1.54583
HEad  -0.738906 4.47933 1.30868
LeftShoulder1  0.771589 -1.57979 -7.5378
LeftArm  -42.671 6.11431 -0.976036
LeftForeArm  28.6372 -21.8784 -2.83386
LeftHand  -0.244104 0.0205437 5.32207
RightShoulder  0.0686307 -2.80817 1.60275
RightArm  -27.9354 -0.593877 -0.566493
RightForeArm  -19.6122 7.64542 3.46618
RightHand  -3.80752 11.2961 -26.365
LeftUpLeg  2.90055 4.47859 0.470034
LeftLeg  4.89904 14.8606 -2.98744
LeftFoot  -5.55674 -0.112485 2.9298
LeftToes  -5.82109e-011 -4.83791e-012 -1.00937e-011
636
root  88.181 40.1745 -3.33482 -170.588 -85.4315 167.448
RightUpLeg  0.943114 -8.32498 -5.49948
RightLeg  7.73699 0.516484 3.0516
RightFoot  -4.85967 0.0434552 -1.2363
RightToes  -4.65663e-010 0 -3.6325e-017
Spine  7.40514 0.573554 -1.12815
Spine1  -3.39626 0.294373 1.87691
HEad  -2.36723 4.67617 1.12648
LeftShoulder1  0.85302 -2.18408 -7.34603
LeftArm  -35.9037 4.50475 -1.38968
LeftForeArm  26.9428 -17.2755 -0.839903
LeftHand  -0.244104 0.0205437 5.32207
RightShoulder  0.113867 -2.41062 2.2549
RightArm  -27.0806 0.15095 -0.397272
RightForeArm  -18.555 6.34382 3.44936
RightHand  -3.45633 10.4759 -25.2236
LeftUpLeg  2.9978 4.35325 0.3814
LeftLeg  4.68833 14.5028 -3.03702
LeftFoot  -5.44044 -0.132305 3.24025
LeftToes  -5.82109e-011 -4.83791e-012 -1.00937e-011
637
root  88.2036 40.1712 -3.30415 -170.177 -85.7331 167.026
RightUpLeg  0.994541 -8.43619 -5.57583
RightLeg  7.71015 0.332284 3.11559
RightFoot  -4.85512 0.0426204 -1.22332
RightToes  -4.65663e-010 0 -3.6325e-017
Spine  7.50385 0.583763 -1.36359
Spine1  -3.26982 0.208907 2.39195
HEad  -3.94346 4.9358 0.769116
LeftShoulder1  0.945029 -2.69761 -7.62546
LeftArm  -29.5497 3.18161 -1.93766
LeftForeArm  24.7529 -12.1487 0.30284
LeftHand  -0.244104 0.0205437 5.32207
RightShoulder  0.167004 -1.96531 2.76643
RightArm  -26.3503 0.730861 0.0325711
RightForeArm  -16.8304 5.02651 3.37121
RightHand  -3.11377 9.818 -23.7734
LeftUpLeg  2.93145 4.31075 0.337282
LeftLeg  4.74393 14.2399 -3.01341
LeftFoot  -5.44332 -0.144819 3.43426
LeftToes  -5.82109e-011 -4.83791e-012 -1.00937e-011
638
root  88.1921 40.1665 -3.26647 -170.34 -85.7924 167.297
RightUpLeg  0.901234 -8.41118 -5.56645
RightLeg  7.6801 0.235291 3.07304
RightFoot  -4.88323 0.038525 -1.15967
RightToes  -4.65663e-010 0 -3.6325e-017
Spine  7.3163 0.670809 -1.46303
Spine1  -2.87025 0.213373 2.82292
HEad  -5.27394 5.2551 0.442102
LeftShoulder1  1.02483 -2.92088 -8.42882
LeftArm  -26.5857 2.14584 -2.50085
LeftForeArm  23.42 -7.77273 0.302396
LeftHand  -0.244104 0.0205437 5.32207
RightShoulder  0.214846 -1.57127 3.06644
RightArm  -25.8176 1.13837 0.674847
RightForeArm  -15.0269 3.82895 3.24789
RightHand  -2.83715 9.26459 -22.5303
LeftUpLeg  2.72424 4.31733 0.303647
LeftLeg  4.92145 14.2575 -2.97452
LeftFoot  -5.51831 -0.144878 3.43263
LeftToes  -5.82109e-011 -4.83791e-012 -1.00937e-011
639
root  88.1568 40.1637 -3.22787 -170.253 -85.6946 167.428
RightUpLeg  0.660746 -8.2654 -5.52034
RightLeg  7.70605 0.191267 2.91411
RightFoot  -4.92929 0.0292473 -1.01548
RightToes  -4.65663e-010 0 -3.6325e-017
Spine  6.86821 0.770518 -1.44273
Spine1  -2.26159 0.271673 3.03013
HEad  -6.29672 5.76621 0.216992
LeftShoulder1  1.07299 -2.90704 -9.29842
LeftArm  -25.2159 1.58029 -3.142
LeftForeArm  21.4608 -4.67582 0.224235
LeftHand  -0.244104 0.0205437 5.32207
RightShoulder  0.256135 -1.24686 3.32494
RightArm  -25.5465 1.41013 1.31958
RightForeArm  -13.8663 2.82981 3.10099
RightHand  -2.60177 8.5207 -21.791
LeftUpLeg  2.53049 4.30773 0.238471
LeftLeg  4.92843 14.3918 -3.01793
LeftFoot  -5.57151 -0.143554 3.40881
LeftToes  -5.82109e-011 -4.83791e-012 -1.00937e-011
640
root  88.1192 40.166 -3.18494 -169.629 -85.6412 167.077
RightUpLeg  0.420882 -8.14644 -5.53699
RightLeg  7.68494 0.135961 2.79242
RightFoot  -4.93246 0.0181861 -0.84361
RightToes  -4.65663e-010 0 -3.6325e-017
Spine  6.37757 0.800429 -1.24148
Spine1  -1.69398 0.335389 2.84553
HEad  -7.16939 6.16845 0.158807
LeftShoulder1  1.10772 -2.95701 -9.75177
LeftArm  -24.2551 1.72334 -3.73134
LeftForeArm  19.0521 -2.72384 0.136596
LeftHand  -0.244104 0.0205437 5.32207
RightShoulder  0.302913 -0.936669 3.83342
RightArm  -25.5253 1.48492 1.59001
RightForeArm  -12.8183 2.05234 2.90185
RightHand  -2.42758 7.94512 -21.2273
LeftUpLeg  2.39226 4.23001 0.119264
LeftLeg  4.74234 14.5013 -3.11244
LeftFoot  -5.57162 -0.149344 3.49621
LeftToes  -5.82109e-011 -4.83791e-012 -1.00937e-011
641
root  88.0607 40.1719 -3.13496 -168.728 -85.7197 166.461
RightUpLeg  0.296193 -8.17228 -5.65679
RightLeg  7.52842 0.0720376 2.83219
RightFoot  -4.88602 0.011027 -0.732382
RightToes  -4.65663e-010 0 -3.6325e-017
Spine  5.9995 0.756767 -0.837495
Spine1  -1.38996 0.400957 2.27278
HEad  -8.00658 5.99328 0.413795
LeftShoulder1  1.13769 -3.11128 -9.80669
LeftArm  -23.0986 2.28912 -4.07959
LeftForeArm  17.1202 -1.47188 -0.105212
LeftHand  -0.244104 0.0205437 5.32207
RightShoulder  0.350488 -0.667914 4.47055
RightArm  -25.5334 1.29932 1.46831
RightForeArm  -11.5223 1.54078 2.70898
RightHand  -2.36945 8.03347 -20.6091
LeftUpLeg  2.25792 4.09393 -0.0333009
LeftLeg  4.54374 14.5995 -3.17234
LeftFoot  -5.54141 -0.157722 3.62541
LeftToes  -5.82109e-011 -4.83791e-012 -1.00937e-011
642
root  87.9649 40.1783 -3.08573 -167.88 -85.8899 165.863
RightUpLeg  0.320601 -8.31407 -5.83276
RightLeg  7.27049 0.0401731 3.00101
RightFoot  -4.83302 0.008191 -0.688324
RightToes  -4.65663e-010 0 -3.6325e-017
Spine  5.87668 0.647838 -0.648303
Spine1  -1.48464 0.31966 2.13738
HEad  -8.59018 5.46283 0.685663
LeftShoulder1  1.12933 -2.89117 -10.3674
LeftArm  -21.8567 2.71708 -3.80494
LeftForeArm  16.6647 -0.729137 -0.438649
LeftHand  -0.244104 0.0205437 5.32207
RightShoulder  0.36382 -0.50224 4.22457
RightArm  -25.5589 1.01535 1.73465
RightForeArm  -10.8221 1.28713 2.59153
RightHand  -2.38621 8.35205 -20.2858
LeftUpLeg  2.16544 3.96084 -0.159503
LeftLeg  4.39641 14.6414 -3.20337
LeftFoot  -5.49738 -0.163044 3.70962
LeftToes  -5.82109e-011 -4.83791e-012 -1.00937e-011
643
root  87.8648 40.1856 -3.04604 -167.37 -86.0999 165.505
RightUpLeg  0.485371 -8.43425 -5.97348
RightLeg  7.00446 0.00659865 3.15067
RightFoot  -4.79181 0.00562795 -0.648507
RightToes  -4.65663e-010 0 -3.6325e-017
Spine  6.13736 0.471251 -1.11116
Spine1  -1.97621 -0.0570613 3.22534
HEad  -8.61402 5.23266 0.383455
LeftShoulder1  1.05398 -1.96202 -12.048
LeftArm  -21.0653 2.86333 -2.75118
LeftForeArm  17.5421 -0.623823 -0.670904
LeftHand  -0.244104 0.0205437 5.32207
RightShoulder  0.325689 -0.437495 2.48937
RightArm  -25.9266 0.920506 2.91291
RightForeArm  -11.1003 1.16188 2.46989
RightHand  -2.37021 8.14015 -20.4594
LeftUpLeg  2.20394 3.88904 -0.209772
LeftLeg  4.25461 14.527 -3.25447
LeftFoot  -5.43485 -0.165986 3.76042
LeftToes  -5.82109e-011 -4.83791e-012 -1.00937e-011
644
root  87.781 40.1945 -3.01236 -166.992 -86.3466 165.17
RightUpLeg  0.728661 -8.45107 -6.04258
RightLeg  6.81733 -0.125418 3.17668
RightFoot  -4.76641 0.00213707 -0.59428
RightToes  -4.65663e-010 0 -3.6325e-017
Spine  6.24201 0.662078 -0.920515
Spine1  -2.32496 0.228651 2.76267
HEad  -8.10129 4.05898 0.751537
LeftShoulder1  1.06383 -2.21407 -11.4085
LeftArm  -21.1828 3.17686 -3.00504
LeftForeArm  18.6319 -0.555548 -0.523897
LeftHand  -0.244104 0.0205437 5.32207
RightShoulder  0.292382 -0.864917 3.08969
RightArm  -25.8559 0.613656 2.10925
RightForeArm  -12.1065 1.3011 2.51526
RightHand  -2.31288 7.65956 -20.6835
LeftUpLeg  2.35241 3.86799 -0.214386
LeftLeg  4.12934 14.3007 -3.31095
LeftFoot  -5.36242 -0.168141 3.80371
LeftToes  -5.82109e-011 -4.83791e-012 -1.00937e-011
645
root  87.6777 40.2012 -2.97369 -165.891 -86.6535 164.078
RightUpLeg  0.977135 -8.45554 -6.11824
RightLeg  6.7283 -0.357349 3.14277
RightFoot  -4.78726 0.000341963 -0.566395
RightToes  -4.65663e-010 0 -3.6325e-017
Spine  5.89927 0.911348 -0.270811
Spine1  -2.07834 0.754139 1.26175
HEad  -7.59885 2.65962 1.58558
LeftShoulder1  1.11689 -3.12647 -9.39603
LeftArm  -21.4921 3.69864 -3.96711
LeftForeArm  18.5576 -0.58238 -0.349621
LeftHand  -0.244104 0.0205437 5.32207
RightShoulder  0.280714 -1.30964 4.91798
RightArm  -25.6617 0.192042 0.34233
RightForeArm  -12.5911 1.50488 2.5637
RightHand  -2.32387 7.71804 -20.6909
LeftUpLeg  2.5336 3.82632 -0.260387
LeftLeg  4.01281 14.0867 -3.34274
LeftFoot  -5.31272 -0.17105 3.86456
LeftToes  -5.82109e-011 -4.83791e-012 -1.00937e-011
646
root  87.5409 40.2022 -2.92789 -163.571 -86.9953 161.794
RightUpLeg  1.22419 -8.56458 -6.28425
RightLeg  6.65775 -0.567844 3.17304
RightFoot  -4.87287 -6.83192e-006 -0.560977
RightToes  -4.65663e-010 0 -3.6325e-017
Spine  5.44522 0.787148 -0.240483
Spine1  -1.57781 0.663266 1.05589
HEad  -7.22309 2.33766 1.82947
LeftShoulder1  1.08384 -3.078 -9.00281
LeftArm  -21.1501 4.08069 -3.91844
LeftForeArm  18.1951 -1.09142 -0.538271
LeftHand  -0.244104 0.0205437 5.32207
RightShoulder  0.272936 -1.33123 4.69634
RightArm  -25.949 0.0730037 0.302829
RightForeArm  -12.4051 1.5646 2.46789
RightHand  -2.41566 8.20725 -20.736
LeftUpLeg  2.76533 3.74181 -0.371806
LeftLeg  3.77993 13.8826 -3.39407
LeftFoot  -5.2999 -0.178777 4.00737
LeftToes  -5.82109e-011 -4.83791e-012 -1.00937e-011
647
root  87.414 40.1999 -2.88371 -161.286 -87.2704 159.576
RightUpLeg  1.48034 -8.68668 -6.45801
RightLeg  6.52832 -0.705494 3.22997
RightFoot  -4.98012 -0.00379479 -0.502139
RightToes  -4.65663e-010 0 -3.6325e-017
Spine  5.29734 0.777679 -0.360552
Spine1  -1.69621 0.654512 1.06005
HEad  -6.34785 1.84743 1.97477
LeftShoulder1  1.07811 -3.13717 -8.74398
LeftArm  -20.1768 4.3173 -3.83708
LeftForeArm  20.2065 -1.69762 -0.924124
LeftHand  -0.244104 0.0205437 5.32207
RightShoulder  0.251607 -1.47163 4.48776
RightArm  -25.8994 -0.033821 0.263357
RightForeArm  -12.7388 1.71566 2.51839
RightHand  -2.47015 8.36233 -20.9584
LeftUpLeg  3.06875 3.69031 -0.462801
LeftLeg  3.40453 13.6451 -3.51115
LeftFoot  -5.30897 -0.191837 4.24418
LeftToes  -5.82109e-011 -4.83791e-012 -1.00937e-011
648
root  87.3036 40.1993 -2.84631 -161.107 -87.4213 159.488
RightUpLeg  1.68192 -8.63072 -6.46626
RightLeg  6.37576 -0.881164 3.16455
RightFoot  -5.04295 -0.0127242 -0.363451
RightToes  -4.65663e-010 0 -3.6325e-017
Spine  5.22068 0.856037 -0.611575
Spine1  -1.92351 0.682629 1.35093
HEad  -5.43132 1.1816 1.72025
LeftShoulder1  1.05109 -3.0125 -8.6261
LeftArm  -18.6826 4.31781 -3.94416
LeftForeArm  23.6281 -1.37211 -1.36312
LeftHand  -0.244104 0.0205437 5.32207
RightShoulder  0.22317 -1.6665 4.22576
RightArm  -25.9049 0.0230358 0.339968
RightForeArm  -12.8975 1.79738 2.53979
RightHand  -2.47558 8.24584 -21.1733
LeftUpLeg  3.30483 3.72553 -0.458004
LeftLeg  3.11253 13.4629 -3.63509
LeftFoot  -5.33211 -0.203694 4.48891
LeftToes  -5.82109e-011 -4.83791e-012 -1.00937e-011
